# xmcd
#
# Track frame offsets:
#	150
#	19071
#	48388
#	80508
#	116306
#
# Disc length: 1847 seconds
#
# Revision: 1
# Processed by: cddbd v1.5.2PL0 Copyright (c) Steve Scherf et al.
# Submitted via: audiograbber 1.83.01
#
DISCID=32073505
DTITLE=Grateful Dead - 78-01-13 Arlington Theatre, Santa Barbara CA
DYEAR=1900
DGENRE=
TTITLE0=Lazy Lightning
TTITLE1=Supplication
TTITLE2=Bertha
TTITLE3=Good Lovin'
TTITLE4=Sunrise
EXTD=
EXTT0=
EXTT1=
EXTT2=
EXTT3=
EXTT4=
PLAYORDER=
